<svg width="40" height="40" viewBox="0 0 40 40" fill="none" xmlns="http://www.w3.org/2000/svg">
    <path d="M20 0C8.97196 0 0 8.97196 0 20C0 31.028 8.97196 40 20 40C31.028 40 40 31.028 40 20C40 8.97196 31.028 0 20 0ZM20 38.3174C15.5726 38.3174 11.5081 36.7386 8.33763 34.1144C9.62647 30.5356 13.0662 28.078 16.8957 28.078H23.0454C26.8929 28.078 30.3438 30.5474 31.6282 34.1425C28.4633 36.7493 24.4117 38.3174 20 38.3174ZM32.9574 32.9349C31.2686 29.0297 27.3696 26.3954 23.046 26.3954H16.8957C12.5917 26.3954 8.70499 29.0163 7.0129 32.9035C3.7207 29.59 1.68256 25.0286 1.68256 20C1.68256 9.89961 9.89961 1.68256 20 1.68256C30.1004 1.68256 38.3174 9.89961 38.3174 20C38.3174 25.0443 36.2675 29.6192 32.9574 32.9349Z" fill="#5B5C65"/>
    <path d="M20.0001 10C15.6679 10 12.1429 13.5244 12.1429 17.8571C12.1429 22.1899 15.6674 25.7143 20.0001 25.7143C24.3328 25.7143 27.8572 22.1899 27.8572 17.8571C27.8572 13.5244 24.3323 10 20.0001 10ZM20.0001 24.0568C16.5818 24.0568 13.8005 21.2755 13.8005 17.8571C13.8005 14.4388 16.5818 11.6575 20.0001 11.6575C23.4184 11.6575 26.1997 14.4388 26.1997 17.8571C26.1997 21.2755 23.4184 24.0568 20.0001 24.0568Z" fill="#5B5C65"/>
    </svg>
