<svg width="1815" height="1079" viewBox="0 0 1815 1079" fill="none" xmlns="http://www.w3.org/2000/svg">
  <path d="M551.21 951.945C427.244 922.542 297.835 908.515 170.92 925.779C112.851 933.467 55.5746 948.169 0 970.828V1079H957.018C825.567 1034.22 695.25 987.148 562.778 954.643C558.922 953.699 555.066 952.89 551.21 951.945Z" fill="#E3E3E3"/>
  <path d="M1814.68 0H0V970.848C55.5746 948.189 112.851 933.352 170.92 925.664C297.835 908.535 427.244 922.427 551.21 951.83C555.066 952.775 558.922 953.719 562.778 954.528C695.25 986.899 825.567 1034.11 957.018 1078.89H1814.68V0Z" fill="#E9E9E9"/>
  <path d="M542.59 783.638C546.219 784.717 549.849 785.931 553.364 787.01C775.89 857.821 994.219 967.071 1226.5 1025.2C1424.07 1074.57 1622.89 1064.59 1814.68 1011.45V0H0V775.411C59.3174 751.672 120.79 738.05 182.716 733.733C304.413 724.832 426.11 747.491 542.59 783.638Z" fill="#EBEBEB"/>
  <path d="M0 0V579.164C63.0602 554.346 128.729 542.342 194.398 541.803C310.991 540.724 424.862 572.42 533.857 615.311C537.259 616.66 540.548 618.009 543.951 619.357C752.186 702.981 958.719 816.413 1181.81 878.457C1393.56 937.398 1608.6 924.855 1814.57 861.462V0H0Z" fill="#EFEFEF"/>
  <path d="M206.193 349.872C317.569 357.965 423.842 397.349 525.237 447.119C528.413 448.602 531.475 450.221 534.651 451.705C728.595 548.277 923.333 665.485 1137.24 731.845C1362.71 801.712 1594.76 786.875 1814.68 711.883V0H0V381.973C66.9164 355.537 136.782 344.882 206.193 349.872Z" fill="#F2F2F2"/>
  <path d="M1814.68 0H0V183.838C70.6592 155.649 144.834 146.747 217.989 157.942C324.147 174.262 422.707 222.278 516.617 278.792C519.566 280.545 522.401 282.299 525.35 284.052C705.004 393.438 887.946 514.557 1092.78 585.098C1331.52 667.374 1581.38 651.188 1814.8 562.709V0H1814.68Z" fill="#F7F7F7"/>
  <path d="M516.142 116.399C681.504 238.733 852.652 363.225 1048.3 438.352C1284.89 529.259 1537.47 520.357 1771.79 431.203C1786.31 425.673 1800.6 419.873 1815 413.804V0H326.961C390.475 28.7289 450.246 68.248 508.089 110.6C510.811 112.488 513.42 114.511 516.142 116.399Z" fill="#F8F8F8"/>
  <path d="M1814.73 0H564.873C698.819 115.725 841.045 221.873 1003.57 291.605C1221.11 384.94 1457.24 392.358 1678.41 320.064C1724.68 304.958 1770.39 286.075 1814.85 263.82V0H1814.73Z" fill="#FAFAFA"/>
  <path d="M1584.96 208.79C1638.5 194.493 1691.12 174.666 1742.16 149.714C1766.77 137.71 1790.93 124.357 1814.64 109.925V0H729.683C801.023 56.2439 876.785 105.474 958.9 144.858C1157.27 240.217 1377.07 264.495 1584.96 208.79Z" fill="#FEFEFE"/>
  <path d="M1491.65 97.6513C1577.05 80.6567 1660.53 47.6117 1737.54 0H917.531C1096.39 95.763 1298.16 136.226 1491.65 97.6513Z" fill="white"/>
  </svg>
