<svg width="36" height="30" viewBox="0 0 36 30" fill="none" xmlns="http://www.w3.org/2000/svg">
    <path
        d="M32.6408 19.2428L9.36267 28.1089C8.73178 28.3485 8.03158 28.328 7.41578 28.0519C6.79997 27.7758 6.31888 27.2667 6.07809 26.6362L0.905957 13.0566C0.66633 12.4257 0.686815 11.7255 0.962916 11.1097C1.23902 10.4939 1.74817 10.0128 2.37863 9.77199L25.6567 0.905957C26.2876 0.66633 26.9878 0.686815 27.6036 0.962916C28.2194 1.23902 28.7005 1.74817 28.9413 2.37862L34.1134 15.9583C34.3531 16.5891 34.3326 17.2893 34.0565 17.9051C33.7804 18.521 33.2712 19.002 32.6408 19.2428ZM2.71231 10.6481C2.31422 10.8004 1.99274 11.1043 1.81837 11.4932C1.64399 11.8822 1.63093 12.3244 1.78206 12.7229L6.95419 26.3025C7.10648 26.7006 7.4104 27.0221 7.79932 27.1965C8.18825 27.3708 8.63045 27.3839 9.02898 27.2328L32.3071 18.3667C32.7052 18.2144 33.0267 17.9105 33.201 17.5216C33.3754 17.1327 33.3885 16.6905 33.2373 16.2919L28.0652 2.71231C27.9129 2.31422 27.609 1.99274 27.2201 1.81837C26.8312 1.64399 26.389 1.63093 25.9904 1.78206L2.71231 10.6481Z"
        fill="#1E1E1E" />
    <path
        d="M22.3303 6.59954L14.8571 9.44588C14.7409 9.49013 14.6119 9.48641 14.4985 9.43555C14.385 9.38469 14.2964 9.29085 14.2522 9.17467C14.2079 9.05849 14.2117 8.92949 14.2625 8.81605C14.3134 8.70261 14.4072 8.61402 14.5234 8.56978L21.9966 5.72343C22.1127 5.67918 22.2417 5.6829 22.3552 5.73376C22.4686 5.78462 22.5572 5.87847 22.6015 5.99464C22.6457 6.11082 22.642 6.23982 22.5911 6.35326C22.5403 6.4667 22.4464 6.55529 22.3303 6.59954Z"
        fill="#1E1E1E" />
    <path
        d="M26.0318 5.1897L23.8591 6.01725C23.7429 6.06149 23.6139 6.05778 23.5004 6.00692C23.387 5.95606 23.2984 5.86221 23.2542 5.74604C23.2099 5.62986 23.2136 5.50086 23.2645 5.38742C23.3154 5.27398 23.4092 5.18539 23.5254 5.14114L25.6981 4.3136C25.8143 4.26935 25.9433 4.27306 26.0567 4.32393C26.1702 4.37479 26.2588 4.46863 26.303 4.58481C26.3473 4.70099 26.3435 4.82999 26.2927 4.94343C26.2418 5.05687 26.148 5.14546 26.0318 5.1897Z"
        fill="#1E1E1E" />
    <path
        d="M11.8378 22.3332L8.69256 23.5312C8.57638 23.5754 8.44738 23.5717 8.33394 23.5209C8.2205 23.47 8.13191 23.3761 8.08767 23.26C8.04342 23.1438 8.04713 23.0148 8.09799 22.9014C8.14885 22.7879 8.2427 22.6993 8.35887 22.6551L11.5041 21.4571C11.6203 21.4129 11.7493 21.4166 11.8627 21.4675C11.9761 21.5183 12.0647 21.6122 12.109 21.7283C12.1532 21.8445 12.1495 21.9735 12.0987 22.087C12.0478 22.2004 11.954 22.289 11.8378 22.3332Z"
        fill="#1E1E1E" />
    <path
        d="M17.9223 20.0158L14.7793 21.2129C14.6631 21.2571 14.5341 21.2534 14.4207 21.2026C14.3072 21.1517 14.2187 21.0579 14.1744 20.9417C14.1302 20.8255 14.1339 20.6965 14.1847 20.5831C14.2356 20.4696 14.3294 20.381 14.4456 20.3368L17.5886 19.1397C17.7048 19.0954 17.8338 19.0992 17.9473 19.15C18.0607 19.2009 18.1493 19.2947 18.1935 19.4109C18.2378 19.5271 18.2341 19.6561 18.1832 19.7695C18.1324 19.883 18.0385 19.9715 17.9223 20.0158Z"
        fill="#1E1E1E" />
    <path
        d="M24.0091 17.6975L20.8661 18.8946C20.7499 18.9389 20.6209 18.9351 20.5074 18.8843C20.394 18.8334 20.3054 18.7396 20.2612 18.6234C20.2169 18.5072 20.2206 18.3782 20.2715 18.2648C20.3223 18.1513 20.4162 18.0628 20.5324 18.0185L23.6754 16.8214C23.7916 16.7772 23.9206 16.7809 24.034 16.8317C24.1475 16.8826 24.236 16.9764 24.2803 17.0926C24.3245 17.2088 24.3208 17.3378 24.27 17.4512C24.2191 17.5647 24.1253 17.6533 24.0091 17.6975Z"
        fill="#1E1E1E" />
    <path
        d="M30.0958 15.3792L26.9506 16.5772C26.8344 16.6214 26.7054 16.6177 26.592 16.5668C26.4785 16.516 26.39 16.4221 26.3457 16.306C26.3015 16.1898 26.3052 16.0608 26.356 15.9473C26.4069 15.8339 26.5007 15.7453 26.6169 15.7011L29.7599 14.504C29.8761 14.4597 30.0051 14.4634 30.1186 14.5143C30.232 14.5652 30.3206 14.659 30.3648 14.7752C30.4091 14.8914 30.4054 15.0204 30.3545 15.1338C30.3036 15.2472 30.2098 15.3358 30.0936 15.3801L30.0958 15.3792Z"
        fill="#1E1E1E" />
    <path
        d="M12.2254 18.9654L10.4578 19.6386C10.2348 19.7235 9.98709 19.7164 9.76928 19.6187C9.55148 19.5211 9.38139 19.3409 9.29643 19.1179L8.69079 17.5277L7.10285 18.1325C6.87979 18.2175 6.63211 18.2104 6.4143 18.1127C6.1965 18.015 6.02641 17.8349 5.94145 17.6118L5.26824 15.8443C5.18328 15.6212 5.19041 15.3735 5.28807 15.1557C5.38572 14.9379 5.5659 14.7678 5.78896 14.6829L7.38128 14.0764L6.77481 12.4841C6.68985 12.261 6.69698 12.0133 6.79464 11.7955C6.89229 11.5777 7.07247 11.4076 7.29553 11.3227L9.06307 10.6495C9.28582 10.566 9.53256 10.574 9.74937 10.6719C9.96619 10.7698 10.1354 10.9495 10.2201 11.1719L10.8266 12.7642L12.4189 12.1577C12.6419 12.0727 12.8896 12.0799 13.1074 12.1775C13.3252 12.2752 13.4953 12.4554 13.5803 12.6784L14.2535 14.446C14.3385 14.669 14.3313 14.9167 14.2337 15.1345C14.136 15.3523 13.9558 15.5224 13.7328 15.6074L12.1405 16.2138L12.7469 17.8062C12.8312 18.0291 12.8236 18.2763 12.7258 18.4936C12.628 18.7109 12.4481 18.8806 12.2254 18.9654ZM10.1592 18.7491L11.8566 18.1026L11.0975 16.1095C11.0533 15.9933 11.057 15.8643 11.1078 15.7509C11.1587 15.6374 11.2525 15.5488 11.3687 15.5046L13.3619 14.7454L12.7153 13.048L10.7222 13.8071C10.606 13.8514 10.477 13.8477 10.3636 13.7968C10.2501 13.7459 10.1616 13.6521 10.1173 13.5359L9.35817 11.5428L7.66071 12.1893L8.41985 14.1824C8.4641 14.2986 8.46038 14.4276 8.40952 14.541C8.35866 14.6545 8.26482 14.7431 8.14864 14.7873L6.1555 15.5465L6.80202 17.2439L8.79516 16.4848C8.91133 16.4405 9.04033 16.4442 9.15377 16.4951C9.26721 16.546 9.3558 16.6398 9.40005 16.756L10.1592 18.7491Z"
        fill="#1E1E1E" />
</svg>